<svg xmlns="http://www.w3.org/2000/svg" viewBox="0 0 56.48 56.48"><path d="M15.051 25.812c-1.058 0-1.869.34-1.869.34l-.224 1.33s.669-.272 1.682-.272c.575 0 .995.064.995.531 0 .284-.051.389-.051.389s-.453-.037-.663-.037c-1.335 0-2.737.568-2.737 2.287 0 1.354.919 1.663 1.49 1.663 1.089 0 1.559-.706 1.583-.708l-.051.59h1.359l.606-4.25c-.001-1.805-1.574-1.863-2.12-1.863zm-.762 4.938c-.479 0-.604-.365-.604-.583 0-.422.229-.93 1.36-.93.264.001.292.028.336.036.03.26-.162 1.477-1.092 1.477zM19.959 27.237c.217 0 1.054.069 1.054.069l.195-1.362s-.542-.121-1.424-.121c-1.142 0-2.3.456-2.3 2.015 0 1.768 1.932 1.588 1.932 2.334 0 .496-.54.537-.956.537-.721 0-1.369-.246-1.371-.236l-.206 1.351c.037.01.437.188 1.732.188.347 0 2.334.09 2.334-1.961 0-1.918-1.839-1.539-1.839-2.31 0-.384.299-.504.849-.504zM23.206 27.411h.817l.197-1.452h-.77l.157-.9h-1.543c-.034.033-.911 5.076-.911 5.688 0 .911.511 1.315 1.23 1.308.563-.004 1.002-.16 1.157-.203l.193-1.312c-.106 0-.261.046-.398.046-.537 0-.596-.287-.562-.498l.433-2.677zM29.673 18.987h-2.754c-.37.5-.718 1.032-1.033 1.552h4.913a14.676 14.676 0 00-1.126-1.552zM51.161 36.445a.796.796 0 00-.075-.1.108.108 0 00-.043-.026.157.157 0 00.105-.046.134.134 0 00.016-.17.121.121 0 00-.064-.049.38.38 0 00-.127-.015h-.174v.505h.082v-.214h.047c.028 0 .051.006.064.018a.454.454 0 01.086.117l.044.08h.101l-.062-.1zm-.182-.182h-.1v-.152h.094a.24.24 0 01.08.009.079.079 0 01.035.026.069.069 0 01.012.039.07.07 0 01-.025.057c-.017.013-.05.021-.096.021zM31.634 22.062h-6.607c-.422.799-.702 1.403-.781 1.553h8.014a14.637 14.637 0 00-.626-1.553zM10.293 24.583l-1.521 4.51-.079-4.51H6.441l-1.234 7.349h1.489l.939-5.54.138 5.54h1.063l1.983-5.54-.879 5.54h1.58l1.217-7.349zM40.069 25.812c-1.06 0-1.87.34-1.87.34l-.225 1.33s.67-.272 1.682-.272c.575 0 .996.064.996.531 0 .284-.053.389-.053.389s-.452-.037-.664-.037c-1.334 0-2.735.568-2.735 2.287 0 1.354.92 1.663 1.49 1.663 1.088 0 1.558-.706 1.583-.708l-.051.59h1.358l.606-4.25c.003-1.805-1.571-1.863-2.117-1.863zm-.76 4.938c-.48 0-.604-.365-.604-.583 0-.422.229-.93 1.36-.93.263.001.291.028.336.036.029.26-.164 1.477-1.092 1.477zM51.21 31.255a.422.422 0 00-.176-.174.466.466 0 00-.635.64.448.448 0 00.173.175.47.47 0 00.638-.641zm-.065.427a.397.397 0 01-.338.198.395.395 0 01-.392-.392c0-.067.017-.132.054-.195a.39.39 0 01.676.389z"/><path d="M50.963 31.648a.627.627 0 00-.074-.1.115.115 0 00-.043-.026.155.155 0 00.104-.046.13.13 0 00.016-.17.142.142 0 00-.062-.049.387.387 0 00-.128-.015H50.6v.504h.082v-.214h.047c.029 0 .052.006.066.017a.51.51 0 01.086.119l.043.079h.101l-.062-.099zm-.18-.185h-.099v-.153h.092c.04 0 .066.003.082.008a.08.08 0 01.033.027.074.074 0 01-.011.096c-.019.017-.05.022-.097.022zM45.313 25.885c-.691 0-1.204.943-1.204.943l.138-.867h-1.438l-.963 5.982h1.584c.451-2.556.533-4.629 1.604-4.25.189-.988.371-1.371.576-1.788 0 .001-.096-.02-.297-.02zM49.293 24.591l-.333 2.065s-.58-.803-1.49-.803c-1.415.001-2.593 1.706-2.593 3.664 0 1.265.629 2.504 1.913 2.504.925 0 1.437-.645 1.437-.645l-.067.551h1.501l1.18-7.339-1.548.003zm-1.957 5.93c-.556 0-.816-.466-.816-1.198 0-1.197.537-1.986 1.216-1.986.554.001.839.382.839 1.28 0 .815-.403 1.904-1.239 1.904z"/><path d="M55.026 9.939H1.454C.65 9.939 0 10.59 0 11.393v33.695c0 .803.65 1.454 1.454 1.454h53.572c.804 0 1.454-.651 1.454-1.454V11.393c0-.803-.65-1.454-1.454-1.454zm-3.617 26.579a.435.435 0 01-.173.175.475.475 0 01-.466 0 .469.469 0 01.002-.815.494.494 0 01.231-.06c.079 0 .155.021.229.06a.425.425 0 01.175.174.477.477 0 01.002.466zm1.048-8.277c.002 8.005-6.484 14.497-14.49 14.499a14.436 14.436 0 01-9.73-3.749 14.435 14.435 0 01-9.717 3.745c-8.001 0-14.495-6.493-14.495-14.495 0-7.97 6.443-14.444 14.402-14.496h.093c3.738 0 7.146 1.418 9.718 3.745a14.443 14.443 0 019.722-3.748c8.006-.003 14.497 6.486 14.499 14.492-.002.002-.002.003-.002.007z"/><path d="M26.753 37.406c.459.562.945 1.098 1.482 1.584l.037-.031-.001-.001h.003a14.488 14.488 0 001.472-1.552h-2.993zM28.727 29.45s.203-1 .203-1.407c0-1.017-.506-2.257-2.2-2.257-1.552.001-2.701 1.673-2.701 3.563 0 2.181 1.439 2.699 2.666 2.699 1.132 0 1.63-.254 1.63-.254l.272-1.488s-.861.38-1.639.38c-1.657 0-1.367-1.236-1.367-1.236h3.136zm-1.992-2.279c.871 0 .71.979.71 1.057h-1.713c0-.101.162-1.057 1.003-1.057zM35.965 25.991c.785 0 1.416.441 1.416.441l.252-1.635s-.934-.378-1.738-.378c-1.781 0-3.514 1.546-3.514 4.449 0 1.925.935 3.196 2.777 3.196.52 0 1.35-.211 1.35-.211l.276-1.684s-.756.379-1.276.379c-1.096-.001-1.535-.837-1.535-1.733 0-1.823.942-2.824 1.992-2.824zM24.818 34.361c.251.539.543 1.052.856 1.552h5.143c.312-.498.593-1.016.844-1.552h-6.843zM32.353 25.887c-.691 0-1.203.943-1.203.943l.139-.867h-1.437l-.963 5.982h1.584c.449-2.555.533-4.629 1.604-4.25.188-.989.369-1.372.574-1.79 0 0-.096-.02-.298-.018z"/></svg>